<svg xmlns="http://www.w3.org/2000/svg" viewBox="0 0 34.9 34.9"><path fill="#E8E8E8" d="M31.9 34.9h-29C1.3 34.9 0 33.6 0 32V3c0-1.7 1.3-3 2.9-3h29c1.6 0 2.9 1.3 2.9 2.9v29c.1 1.7-1.2 3-2.9 3z"/><path fill="#FFF" d="M7.8 8.7v17c0 2.2 2.4 3.6 4.3 2.5l14.8-8.5c1.9-1.1 1.9-3.9 0-5L12.1 6.2c-1.9-1.1-4.3.3-4.3 2.5zM32 27h-2c-.3 0-.5-.2-.5-.5v-2c0-.3-.2-.5-.5-.5h-1.3c-.3 0-.5.2-.5.5v2c0 .3-.2.5-.5.5h-2c-.3 0-.5.2-.5.5v1.3c0 .3.2.5.5.5h2c.3 0 .5.2.5.5v2c0 .3.2.5.5.5H29c.3 0 .5-.2.5-.5v-2c0-.3.2-.5.5-.5h2c.3 0 .5-.2.5-.5v-1.3c.1-.3-.2-.5-.5-.5z"/></svg>