<svg xmlns="http://www.w3.org/2000/svg" viewBox="3.3 0.5 197.3 55.9"><path fill="#FFF" d="M26.685 29.09c3 0 5.5 3 5.5 6.626 0 3.625-2.5 6.625-5.5 6.625s-5.5-3-5.5-6.625 2.5-6.625 5.5-6.625"/><path fill="none" stroke="#000" stroke-width="1.375" d="M26.685 29.09c3 0 5.5 3 5.5 6.626 0 3.625-2.5 6.625-5.5 6.625s-5.5-3-5.5-6.625 2.5-6.625 5.5-6.625z"/><path fill="#FFF" d="M18.008 49.33c.125-.25.125-.5.125-.75 0-1.75-1.75-3.125-3.75-3.125s-3.875 1.375-3.875 3.125c0 .25 0 .5.125.75h7.375z"/><path fill="none" stroke="#000" stroke-width="1.375" stroke-linecap="round" stroke-linejoin="round" d="M18.008 49.33c.125-.25.125-.5.125-.75 0-1.75-1.75-3.125-3.75-3.125s-3.875 1.375-3.875 3.125c0 .25 0 .5.125.75h7.375z"/><path fill="#FFF" d="M31.315 49.33c.125-.25.125-.5.125-.75 0-1.75-1.75-3.125-3.75-3.125s-3.875 1.375-3.875 3.125c0 .25 0 .5.125.75h7.375z"/><path fill="none" stroke="#000" stroke-width="1.375" stroke-linecap="round" stroke-linejoin="round" d="M31.315 49.33c.125-.25.125-.5.125-.75 0-1.75-1.75-3.125-3.75-3.125s-3.875 1.375-3.875 3.125c0 .25 0 .5.125.75h7.375z"/><path fill="#FFF" d="M10.611 15.018c0 1.875-1.5 3.375-3.375 3.375s-3.375-1.5-3.375-3.375 1.5-3.375 3.375-3.375 3.375 1.5 3.375 3.375"/><path fill="none" stroke="#000" stroke-width="1.375" d="M10.611 15.018c0 1.875-1.5 3.375-3.375 3.375s-3.375-1.5-3.375-3.375 1.5-3.375 3.375-3.375 3.375 1.5 3.375 3.375z"/><path fill="#FFF" d="M38.24 15.018c0 1.875-1.5 3.375-3.376 3.375-1.875 0-3.375-1.5-3.375-3.375s1.5-3.375 3.375-3.375 3.375 1.5 3.375 3.375"/><path fill="none" stroke="#000" stroke-width="1.375" d="M38.24 15.018c0 1.875-1.5 3.375-3.376 3.375-1.875 0-3.375-1.5-3.375-3.375s1.5-3.375 3.375-3.375 3.375 1.5 3.375 3.375z"/><path fill="none" stroke="#000" stroke-width="1.375" stroke-linecap="round" stroke-linejoin="round" d="M30.41 3.163l-6.75-1.625-2.5 7.875"/><path fill="#FFF" d="M15.312 29.09c3 0 5.5 3 5.5 6.626 0 3.625-2.5 6.625-5.5 6.625s-5.5-3-5.5-6.625 2.5-6.625 5.5-6.625"/><path fill="none" stroke="#000" stroke-width="1.375" d="M15.312 29.09c3 0 5.5 3 5.5 6.626 0 3.625-2.5 6.625-5.5 6.625s-5.5-3-5.5-6.625 2.5-6.625 5.5-6.625z"/><path fill="#FFF" d="M35.83 3.71c0 1.5-1.25 2.624-2.625 2.624-1.5 0-2.625-1.25-2.625-2.625 0-1.5 1.25-2.625 2.625-2.625S35.83 2.21 35.83 3.71"/><path fill="none" stroke="#000" stroke-width="1.375" d="M35.83 3.71c0 1.5-1.25 2.624-2.625 2.624-1.5 0-2.625-1.25-2.625-2.625 0-1.5 1.25-2.625 2.625-2.625S35.83 2.21 35.83 3.71z"/><path fill="#FFF" d="M19.105 49.333h3.75c3.375-1.75 5.75-7.875 5.75-15.375 0-8.75-3.375-15.875-7.625-15.875s-7.625 7.125-7.625 15.875c0 7.5 2.375 13.625 5.75 15.375"/><path fill="none" stroke="#000" stroke-width="1.375" d="M19.105 49.333h3.75c3.375-1.75 5.75-7.875 5.75-15.375 0-8.75-3.375-15.875-7.625-15.875s-7.625 7.125-7.625 15.875c0 7.5 2.375 13.625 5.75 15.375z"/><path fill="#FFF" d="M36.272 19.663c0 5.5-6.875 10-15.25 10-8.5 0-15.375-4.5-15.375-10s6.875-10 15.25-10c8.5 0 15.375 4.5 15.375 10"/><path fill="none" stroke="#000" stroke-width="1.375" d="M36.272 19.663c0 5.5-6.875 10-15.25 10-8.5 0-15.375-4.5-15.375-10s6.875-10 15.25-10c8.5 0 15.375 4.5 15.375 10z"/><path fill="none" stroke="#000" stroke-width="1.375" stroke-linecap="round" stroke-linejoin="round" d="M16.95 49.33h8.25"/><path d="M45.86 29.481c0-.5.126-1 .5-1.375.376-.375.75-.5 1.25-.5s.876.125 1.25.5c.25.375.5.75.5 1.375v1.75h.126c.5-.875 1.25-1.75 2.125-2.5s1.75-1.125 2.75-1.125c.5 0 1 .125 1.375.5s.625.75.625 1.25c0 .625-.25 1-.625 1.375s-1.25.5-2 .75-1.25.375-1.5.5c-2 1-2.875 2.875-2.875 5.375v10.375c0 .625-.125 1-.5 1.375s-.75.5-1.25.5-.875-.125-1.25-.5c-.375-.5-.5-.875-.5-1.5V29.481z"/><path fill="none" stroke="#000" stroke-width=".7474999999999999" d="M45.86 29.481c0-.5.126-1 .5-1.375.376-.375.75-.5 1.25-.5s.876.125 1.25.5c.25.375.5.75.5 1.375v1.75h.126c.5-.875 1.25-1.75 2.125-2.5s1.75-1.125 2.75-1.125c.5 0 1 .125 1.375.5s.625.75.625 1.25c0 .625-.25 1-.625 1.375s-1.25.5-2 .75-1.25.375-1.5.5c-2 1-2.875 2.875-2.875 5.375v10.375c0 .625-.125 1-.5 1.375s-.75.5-1.25.5-.875-.125-1.25-.5c-.375-.5-.5-.875-.5-1.5V29.481z"/><path d="M60.638 37.234h11.75c0-2-.5-3.5-1.625-4.75-1-1.25-2.375-1.75-4.125-1.875-1.75 0-3.25.625-4.25 1.75-1.125 1.125-1.625 2.75-1.75 4.875m-3.5 1.125c.125-1.875.5-3.5 1.25-5.25.75-1.625 1.875-3 3.25-4s3-1.5 5-1.625c1.875 0 3.5.5 4.875 1.5s2.5 2.25 3.25 4a12.227 12.227 0 0 1 1.125 5.125c0 1.125-.625 1.75-2 1.75h-13.25c0 1.5.375 2.625.875 3.625.625 1 1.375 1.75 2.375 2.25s2 .75 3.25.75c2.125 0 4-.75 5.75-2.25.625-.375 1-.625 1.375-.625s.75.125.875.375c.25.25.375.625.375 1 0 .5-.125.875-.5 1.25-.875 1-2 1.625-3.375 2.25s-3 1-4.75 1-3.25-.375-4.5-1-2.375-1.5-3.125-2.625-1.375-2.25-1.75-3.5-.5-2.5-.625-3.875c.125 0 .125 0 .25-.125"/><path fill="none" stroke="#000" stroke-width=".7474999999999999" d="M60.638 37.234h11.75c0-2-.5-3.5-1.625-4.75-1-1.25-2.375-1.75-4.125-1.875-1.75 0-3.25.625-4.25 1.75-1.125 1.125-1.625 2.75-1.75 4.875zm-3.5 1.125c.125-1.875.5-3.5 1.25-5.25.75-1.625 1.875-3 3.25-4s3-1.5 5-1.625c1.875 0 3.5.5 4.875 1.5s2.5 2.25 3.25 4a12.227 12.227 0 0 1 1.125 5.125c0 1.125-.625 1.75-2 1.75h-13.25c0 1.5.375 2.625.875 3.625.625 1 1.375 1.75 2.375 2.25s2 .75 3.25.75c2.125 0 4-.75 5.75-2.25.625-.375 1-.625 1.375-.625s.75.125.875.375c.25.25.375.625.375 1 0 .5-.125.875-.5 1.25-.875 1-2 1.625-3.375 2.25s-3 1-4.75 1-3.25-.375-4.5-1-2.375-1.5-3.125-2.625-1.375-2.25-1.75-3.5-.5-2.5-.625-3.875c.125 0 .125 0 .25-.125z"/><path d="M81.858 38.48c0 2.125.5 4 1.375 5.5 1 1.625 2.375 2.375 4.25 2.5 1.5 0 2.625-.375 3.625-1.125a7.6 7.6 0 0 0 1.875-3c.375-1.125.625-2.5.625-3.75 0-1.5-.25-2.875-.75-4.125s-1.25-2.125-2.125-2.75c-.875-.75-1.875-1.125-3-1.125-1.375 0-2.375.375-3.375 1.125a12.171 12.171 0 0 0-1.875 3c-.375 1.25-.625 2.5-.625 3.75m11.375-8v-10.5c0-.5.125-1 .5-1.25.375-.375.75-.5 1.25-.5s1 .125 1.25.5c.375.375.5.75.5 1.375v27.5c0 .625-.125 1-.5 1.375s-.75.5-1.25.5-.875-.125-1.25-.5-.5-.75-.5-1.25v-1.125h-.125c-.375.75-1 1.375-1.75 2-.875.5-2.125.875-3.5.875-1.875 0-3.5-.5-5-1.375-1.375-.875-2.5-2.25-3.25-3.875s-1.125-3.5-1.25-5.625c0-1.5.25-2.875.625-4.25.5-1.375 1-2.5 1.875-3.5.75-1 1.75-1.875 2.875-2.375 1.125-.625 2.375-.875 3.625-.875 2.375 0 4.375 1 5.875 2.875-.125 0 0 0 0 0z"/><path fill="none" stroke="#000" stroke-width=".7474999999999999" d="M81.858 38.48c0 2.125.5 4 1.375 5.5 1 1.625 2.375 2.375 4.25 2.5 1.5 0 2.625-.375 3.625-1.125a7.6 7.6 0 0 0 1.875-3c.375-1.125.625-2.5.625-3.75 0-1.5-.25-2.875-.75-4.125s-1.25-2.125-2.125-2.75c-.875-.75-1.875-1.125-3-1.125-1.375 0-2.375.375-3.375 1.125a12.171 12.171 0 0 0-1.875 3c-.375 1.25-.625 2.5-.625 3.75zm11.375-8v-10.5c0-.5.125-1 .5-1.25.375-.375.75-.5 1.25-.5s1 .125 1.25.5c.375.375.5.75.5 1.375v27.5c0 .625-.125 1-.5 1.375s-.75.5-1.25.5-.875-.125-1.25-.5-.5-.75-.5-1.25v-1.125h-.125c-.375.75-1 1.375-1.75 2-.875.5-2.125.875-3.5.875-1.875 0-3.5-.5-5-1.375-1.375-.875-2.5-2.25-3.25-3.875s-1.125-3.5-1.25-5.625c0-1.5.25-2.875.625-4.25.5-1.375 1-2.5 1.875-3.5.75-1 1.75-1.875 2.875-2.375 1.125-.625 2.375-.875 3.625-.875 2.375 0 4.375 1 5.875 2.875-.125 0 0 0 0 0z"/><path d="M104.183 38.48c0 2.125.5 4 1.375 5.5 1 1.625 2.375 2.375 4.25 2.5 1.5 0 2.625-.375 3.625-1.125a7.6 7.6 0 0 0 1.875-3c.375-1.125.625-2.5.625-3.75 0-1.5-.25-2.875-.75-4.125s-1.25-2.125-2.125-2.75c-.875-.75-1.875-1.125-3-1.125-1.375 0-2.375.375-3.375 1.125a12.171 12.171 0 0 0-1.875 3c-.375 1.25-.625 2.5-.625 3.75m11.375-8v-10.5c0-.5.125-1 .5-1.25.375-.375.75-.5 1.25-.5s1 .125 1.25.5c.375.375.5.75.5 1.375v27.5c0 .625-.125 1-.5 1.375s-.75.5-1.25.5-.875-.125-1.25-.5-.5-.75-.5-1.25v-1.125h-.125c-.375.75-1 1.375-1.75 2-.875.5-2.125.875-3.5.875-1.875 0-3.5-.5-5-1.375-1.375-.875-2.5-2.25-3.25-3.875a13.3 13.3 0 0 1-1.25-5.625c0-1.5.25-2.875.625-4.25.5-1.375 1-2.5 1.875-3.5.75-1 1.75-1.875 2.875-2.375 1.125-.625 2.375-.875 3.625-.875 2.375 0 4.375 1 5.875 2.875-.125 0 0 0 0 0z"/><path fill="none" stroke="#000" stroke-width=".7474999999999999" d="M104.183 38.48c0 2.125.5 4 1.375 5.5 1 1.625 2.375 2.375 4.25 2.5 1.5 0 2.625-.375 3.625-1.125a7.6 7.6 0 0 0 1.875-3c.375-1.125.625-2.5.625-3.75 0-1.5-.25-2.875-.75-4.125s-1.25-2.125-2.125-2.75c-.875-.75-1.875-1.125-3-1.125-1.375 0-2.375.375-3.375 1.125a12.171 12.171 0 0 0-1.875 3c-.375 1.25-.625 2.5-.625 3.75zm11.375-8v-10.5c0-.5.125-1 .5-1.25.375-.375.75-.5 1.25-.5s1 .125 1.25.5c.375.375.5.75.5 1.375v27.5c0 .625-.125 1-.5 1.375s-.75.5-1.25.5-.875-.125-1.25-.5-.5-.75-.5-1.25v-1.125h-.125c-.375.75-1 1.375-1.75 2-.875.5-2.125.875-3.5.875-1.875 0-3.5-.5-5-1.375-1.375-.875-2.5-2.25-3.25-3.875a13.3 13.3 0 0 1-1.25-5.625c0-1.5.25-2.875.625-4.25.5-1.375 1-2.5 1.875-3.5.75-1 1.75-1.875 2.875-2.375 1.125-.625 2.375-.875 3.625-.875 2.375 0 4.375 1 5.875 2.875-.125 0 0 0 0 0z"/><path d="M134.684 30.875h-1.5c-.5 0-.875-.125-1.25-.375-.25-.25-.5-.625-.5-1 .125-1.125.625-1.625 1.75-1.625h1.5v-4.75c0-.5.125-.875.5-1.25.375-.25.75-.375 1.25-.375s1 .125 1.25.375c.375.25.5.75.5 1.25v4.75h1.5c.5 0 1 .125 1.25.375s.375.625.375 1.125c0 .375-.125.75-.375 1-.25.375-.5.5-1 .5h-1.75V47.75c0 .5-.125 1-.5 1.25s-.875.5-1.375.5-.875-.125-1.125-.5c-.375-.25-.5-.75-.5-1.375v-16.75z"/><path fill="none" stroke="#000" stroke-width=".7474999999999999" d="M134.684 30.875h-1.5c-.5 0-.875-.125-1.25-.375-.25-.25-.5-.625-.5-1 .125-1.125.625-1.625 1.75-1.625h1.5v-4.75c0-.5.125-.875.5-1.25.375-.25.75-.375 1.25-.375s1 .125 1.25.375c.375.25.5.75.5 1.25v4.75h1.5c.5 0 1 .125 1.25.375s.375.625.375 1.125c0 .375-.125.75-.375 1-.25.375-.5.5-1 .5h-1.75V47.75c0 .5-.125 1-.5 1.25s-.875.5-1.375.5-.875-.125-1.125-.5c-.375-.25-.5-.75-.5-1.375v-16.75z"/><path fill="#FFF" d="M128.576 21.864c0 1.625-1.25 2.875-2.875 2.875s-2.875-1.25-2.875-2.875 1.25-2.875 2.875-2.875 2.875 1.25 2.875 2.875"/><path fill="none" stroke="#000" stroke-width="2" d="M128.576 21.864c0 1.625-1.25 2.875-2.875 2.875s-2.875-1.25-2.875-2.875 1.25-2.875 2.875-2.875 2.875 1.25 2.875 2.875z"/><path fill="none" stroke="#000" stroke-width="4.2" stroke-linecap="round" d="M125.695 29.29v18.5"/><path fill="#FF4500" d="M17.45 17.714c0 1-.75 1.75-1.75 1.75s-1.75-.75-1.75-1.75.75-1.75 1.75-1.75 1.75.75 1.75 1.75"/><path fill="none" stroke="#FF4500" stroke-width="1.375" d="M17.45 17.714c0 1-.75 1.75-1.75 1.75s-1.75-.75-1.75-1.75.75-1.75 1.75-1.75 1.75.75 1.75 1.75z"/><path fill="#FF4500" d="M28.229 17.714c0 1-.75 1.75-1.75 1.75s-1.75-.75-1.75-1.75.75-1.75 1.75-1.75 1.75.75 1.75 1.75"/><path fill="none" stroke="#FF4500" stroke-width="1.375" d="M28.229 17.714c0 1-.75 1.75-1.75 1.75s-1.75-.75-1.75-1.75.75-1.75 1.75-1.75 1.75.75 1.75 1.75z"/><path fill="none" stroke="#000" stroke-width="1.375" stroke-linecap="round" d="M15.763 24.258c1.375 1.375 3.5 1.625 5.25 1.625M26.332 24.258c-1.375 1.375-3.5 1.625-5.25 1.625"/><text transform="translate(148 49.5)" font-family="'MuseoSans-100'" font-size="33">Lite</text></svg>